<svg width="303" height="467" viewBox="0 0 303 467" fill="none" xmlns="http://www.w3.org/2000/svg">
<g clip-path="url(#clip0_467_10114)">
<path d="M144.62 81.33C135.81 82.69 129.62 82.26 125.43 81.98C125.43 81.98 130.82 80.67 133.98 77.48C135.26 76.19 135.04 73.55 133.46 73.24C121.04 70.82 109.63 72.87 105.6 73.78C106.59 72.7 107.3 71.64 107.83 70.65C111.69 71.21 117.71 71.24 125.55 71.05C125.55 71.05 137.72 70.56 141.1 65.51C142.21 63.85 141.49 62.07 140.96 61.38C140.51 60.79 139.58 60.46 138.83 60.39C137.4 60.24 136.57 60.58 136.19 60.8C136.11 60.85 136.14 60.96 136.23 60.98C137.14 61.1 137.51 62.16 137.11 62.81C136.51 63.78 134.86 64.37 134.86 64.37C130.65 66.18 123.3 66.7 116.29 65.96L120.72 61.86C121.06 61.55 121.07 61.43 121.02 61.33C120.75 60.77 118.01 56.61 110.77 54.86H110.64C110.22 54.89 108.35 55.28 106.65 58.5C106.58 58.64 106.68 58.8 106.86 58.86C108.07 59.25 112.45 60.97 114.24 65.71C110.1 65.09 106.8 63.98 105.8 62.38C104.28 59.96 105.39 55.95 105.86 54.53C117.59 53.29 125.31 53.68 131.25 53.84L134.71 53.96C135 55.62 134.76 57.66 132.5 58.95C129 55.87 126.2 55.39 125.65 55.33C125.59 55.33 125.53 55.33 125.47 55.36C123.14 56.37 121.83 57.73 121.41 58.22C121.32 58.32 121.36 58.45 121.48 58.52C122.41 59.03 126 61.19 127.42 65.3C127.47 65.44 128.72 64.72 128.9 64.62C131.19 63.39 134.08 60.91 134.08 60.91C134.22 60.83 134.25 60.66 134.13 60.54C133.73 60.11 133.33 59.72 132.94 59.36H143.38C143.57 59.36 143.72 59.22 143.72 59.06V51.68C143.72 51.68 143.72 51.66 143.71 51.65C143.71 50.98 140.13 50.46 139.07 50.33C137.83 50.17 136.06 49.98 133.71 49.82C134.06 49.38 135.96 46.73 132.42 44.36C135.15 44.14 138.01 43.89 141 43.61C141.09 43.61 141.18 43.56 141.23 43.49C142.34 41.93 141.9 37.74 141.74 37.09C141.71 36.97 141.58 36.86 141.45 36.89C117.29 41.76 98.9499 41.47 90.0899 41.23C87.6999 41.16 88.2599 40.41 89.0399 39.86C89.2699 39.69 89.0799 39.44 88.7699 39.45C85.0199 39.59 82.9899 41.05 82.9899 41.05C81.4799 42.17 82.1799 43.92 82.8999 44.42C82.8999 44.42 83.8699 45.1 85.1699 45.25C85.8899 45.33 87.1999 45.44 89.4099 45.57C89.6099 46.88 90.4499 49.4 93.7799 50.65C92.2099 50.77 90.5899 50.91 88.9299 51.06H88.9199L82.9999 51.64C82.8399 51.64 82.7099 51.76 82.7099 51.9V59.12C82.7099 59.26 82.8399 59.38 82.9999 59.38H90.3399C90.4999 59.38 90.6399 59.26 90.6399 59.12V56.8C92.7999 56.41 94.8599 56.07 96.8299 55.77C96.4199 63.21 85.2399 63.03 83.1099 62.96C82.8999 62.96 82.7199 63.09 82.7199 63.26V69.97C82.7199 70.13 82.8699 70.26 83.0699 70.27C85.4899 70.39 99.8399 70.4 99.9499 55.19C101.24 55.01 101.29 55 102.49 54.85C101.77 56.19 100.3 61.03 100.46 65.11C100.54 67.14 102.28 68.62 104.16 69.52C101.6 71.72 95.9899 73.71 83.7499 72.78C83.4599 72.76 83.2299 72.96 83.2799 73.18L85.1899 81.07C85.2299 81.24 85.4399 81.36 85.6599 81.35C93.3999 80.81 98.6099 78.95 102.12 76.69C103.14 77.97 104.95 79.79 108 81.63C98.3499 82.52 93.0699 83.15 84.9199 82.73C84.4799 82.71 84.1899 82.63 83.9399 83.26L81.4499 88.4C81.0599 89.18 81.0699 89.4 82.3599 89.4C93.9999 89.4 106.52 87.57 116.21 85.29C122.5 87.35 130.35 89.25 142.53 89.27C142.65 89.27 142.78 89.16 142.82 89.05L145.06 81.63C145.17 81.33 144.88 81.23 144.71 81.26L144.62 81.33ZM122.57 44.94C126.89 46.32 125.34 48.84 124.96 49.36C122.91 49.33 120.64 49.32 118.14 49.35C118.43 48.5 118.76 46.61 116.69 45.28C118.56 45.19 120.51 45.08 122.56 44.95L122.57 44.94ZM103 49.91C103.98 49.42 104.57 48.99 104.57 48.99C100.74 48.41 99.6799 46.96 99.5299 45.74C101.93 45.74 104.63 45.71 107.67 45.63C109.61 46.82 109.78 48.46 109.6 49.58C107.52 49.66 105.32 49.77 103.01 49.91H103ZM106.85 76.32C106.85 76.32 106.84 76.26 106.87 76.26C107.84 76.11 117.55 74.78 125.35 75.93C126.33 76.07 126.14 76.16 125.97 76.33C123.61 78.81 116.16 80.61 116.16 80.61C112.15 79.42 108.89 77.76 106.86 76.31" fill="#040000"/>
<path d="M17.3301 70.8298C16.0701 78.5198 4.06012 78.1098 1.57012 78.0298C1.33012 78.0298 1.12012 78.1798 1.12012 78.3898V86.0698C1.12012 86.2598 1.30012 86.4198 1.53012 86.4298C4.36012 86.5698 20.9501 87.9898 20.9501 70.8598H17.3401L17.3301 70.8298Z" fill="#040000"/>
<path d="M29.7803 36.61C27.9503 37.48 27.2103 39.85 28.0203 41.7C28.2603 42.25 28.5703 42.88 28.9503 43.55C28.9703 43.59 29.0003 43.64 29.0303 43.68C14.6303 44.05 5.73026 42.65 5.73026 42.65C5.62026 42.65 5.54026 42.74 5.47026 42.83C5.06026 43.37 4.22026 44.95 4.37026 47.34C4.37026 47.49 4.50026 47.54 4.65026 47.59C4.65026 47.59 10.6603 48.8 24.8803 49.12V56.65C24.8803 56.65 25.3703 67.9 21.6003 68.09C23.0403 69.09 29.4003 70.42 31.4503 65.69C32.4203 63.44 32.4003 56.65 32.4003 56.65L32.4703 49.19C33.7203 49.19 35.0103 49.18 36.3603 49.16V68.5C36.3603 68.92 36.4803 68.88 36.6203 68.88H43.6203C43.7703 68.88 43.8803 68.92 43.8803 68.5V49C49.2403 48.83 55.2203 48.55 61.8503 48.12C61.9403 48.12 62.0303 48.07 62.0903 47.99C63.2803 46.14 63.1303 41.02 63.0203 40.22C63.0003 40.07 62.8803 39.93 62.7403 39.96C53.5903 41.75 45.1403 42.76 37.6903 43.28L37.2003 42.68C35.1103 40.34 35.6303 38.55 36.7203 38.11C37.4703 37.81 37.7403 38.02 36.8403 37.56C33.3803 35.83 31.1403 35.93 29.7003 36.62" fill="#040000"/>
<path d="M3.2002 71.0999C6.6802 71.2699 20.9402 71.6299 20.9402 49.8599H16.4902C16.4902 61.9399 6.3102 61.2299 3.2502 61.1399C2.9502 61.1399 2.7002 61.3199 2.7002 61.5599V70.6899C2.7002 70.9099 2.9202 71.0999 3.2002 71.1099" fill="#040000"/>
<path d="M49.9901 68.0799C49.8501 68.0199 49.7401 68.0099 49.5701 68.1199L44.3801 71.4799C44.1901 71.5699 44.2301 71.7999 44.4301 71.8499C46.0401 72.2099 47.6201 73.5399 48.6701 75.7599C50.2401 80.1199 44.2201 82.6799 37.9801 83.2799L42.9301 78.5499C43.2701 78.2199 43.2901 78.0999 43.2401 77.9999C40.5701 72.9899 34.3701 70.8899 33.2601 70.5599C33.1101 70.5199 32.9501 70.5299 32.8201 70.5999C31.9401 71.0499 30.5501 72.0099 28.7701 75.0599C28.6901 75.1999 28.8001 75.3799 28.9801 75.4299C30.2601 75.8599 35.0901 77.8299 36.6801 83.3899C31.9701 83.6399 27.4101 82.7699 26.2001 80.7099C24.3301 77.5199 26.8301 71.4899 27.0401 70.8899C27.0401 70.8699 27.0201 70.8499 26.9901 70.8499H23.5501C23.4101 71.0999 21.8601 74.8099 21.0001 78.7999C19.9101 83.8699 23.4001 88.8599 28.5501 89.4499C28.5501 89.4499 31.6801 90.0199 37.2601 89.7799C49.3901 89.2499 57.0701 84.6999 57.0701 77.1499C57.0701 72.1799 52.0101 68.8699 50.0001 68.0799" fill="#040000"/>
<path d="M62.9703 72.1C62.8703 72 62.7203 71.95 62.5803 71.96C60.1003 72.12 58.4103 73.05 57.8303 73.41C57.7603 73.46 57.6603 73.58 57.7303 73.69C58.2003 74.46 60.8603 81.55 59.2003 86.39C59.1703 86.48 59.2603 86.57 59.3803 86.58C60.4703 86.6 65.4203 85.97 67.8903 84.12C67.9403 84.09 67.9603 84.04 67.9603 83.99C68.1803 78.39 64.0003 73.08 62.9703 72.11" fill="#040000"/>
<path d="M52.9601 49.51L47.8501 49.86C47.8501 73.23 62.1101 70.6 65.5901 70.43C65.8701 70.42 66.0901 70.23 66.0901 70.01V63.37C66.0901 63.13 65.8401 62.94 65.5401 62.95C62.4801 63.05 52.9701 64.02 52.9701 49.51" fill="#040000"/>
<path d="M200.08 36.47C199.98 36.5 199.89 36.62 199.92 36.76L200.23 41.93L193.25 42.33H193.13C193.13 42.33 191.71 46.73 192.57 60.51L221.49 59.93C221.49 59.93 223.16 56.11 222.3 42.32H222.26C222.24 42.17 221.96 41.93 221.96 41.93H213.52L213.79 36.93C213.81 36.79 213.73 36.67 213.63 36.64C213.09 36.49 209.66 36.09 208.37 37.2C208.31 37.25 208.28 37.44 208.27 37.54L208.44 42.32H205.35L205.44 37.77C205.44 37.68 205.4 37.48 205.34 37.43C204.05 36.32 200.62 36.72 200.09 36.87L200.08 36.47ZM196.95 47.07C196.95 47.07 198.42 47 200.58 46.91L200.77 49.62L196.7 49.73C196.7 49.73 196.65 49.75 196.63 49.76C196.69 48.75 196.8 47.81 196.94 47.07H196.95ZM197.26 55.78C196.95 55.05 196.76 54.08 196.66 53.02L201 52.99L201.21 55.85C199.73 55.85 198.37 55.83 197.26 55.79V55.78ZM213.23 46.64C214.36 46.65 215.37 46.68 216.18 46.74C216.49 47.39 216.69 48.24 216.81 49.18L213.06 49.29L213.23 46.65V46.64ZM212.84 53.03L216.94 53C216.89 53.97 216.79 54.87 216.66 55.57C216.66 55.57 215.04 55.64 212.68 55.73L212.85 53.03H212.84ZM205.22 46.76C206.34 46.73 207.49 46.7 208.63 46.68L208.75 49.41L205.16 49.51L205.23 46.76H205.22ZM205.06 53.03L208.9 53L209.02 55.79C207.72 55.83 206.35 55.86 204.99 55.89L205.06 53.04V53.03Z" fill="#040000"/>
<path d="M183.75 61.3399H168.08C167.49 61.3399 167.3 61.6299 167.3 62.2599C167.3 70.6399 168.21 79.1099 158.09 83.6099C158.01 83.6399 157.94 83.6799 157.88 83.7199C157.77 83.7899 157.74 83.9399 157.8 84.0499L160.8 89.3599C160.9 89.5599 160.95 89.7499 161.12 89.6899C164.49 88.6099 168.03 86.3099 169.98 81.9299L177.35 82.0099C177.29 84.8699 176.86 86.3299 175.54 89.0599C175.47 89.1999 175.1 89.8599 175.9 89.8599H183.89C184.03 89.8599 184.14 89.7099 184.14 89.5299V62.9599C184.14 62.2099 184.11 61.7499 184.08 61.4799C184.06 61.2599 183.9 61.0999 183.71 61.0999L183.75 61.3399ZM177.8 76.7899H171.84C172.07 76.1199 172.17 74.9099 172.28 74.0199L177.8 74.0799V76.7899ZM178.2 69.2599H172.61C172.63 68.5599 172.64 67.5599 172.64 66.8499L178.2 66.7499V69.2599V69.2599Z" fill="#040000"/>
<path d="M185.52 53.3101C188 48.7201 188.1 41.8701 183.86 39.6601C177.58 36.3801 172.28 40.3201 169.99 42.4501C169.99 40.3801 169.93 39.0101 169.93 39.0101C169.96 38.8201 169.86 38.6501 169.75 38.6101C169.15 38.4001 164.82 38.6801 163.99 39.7101C163.77 39.9901 163.59 40.5701 163.88 44.1001L164.68 54.3501C163.87 54.3001 163.34 53.9701 163.07 53.7301C162.97 53.6501 162.85 53.7301 162.84 53.8801C162.76 54.9301 162.96 59.4901 156.68 61.9401C156.16 62.1401 156.46 62.3701 156.6 62.5601L160.77 66.9201C161.23 67.5401 161.96 67.6201 162.49 67.1101C163.75 65.8801 166.33 63.4701 167.61 58.5701L184.83 58.4001C184.97 58.4001 185.11 58.4001 185.23 58.4001C185.24 60.5601 185.11 63.0401 184.59 65.0101C184.55 65.1601 184.69 65.3101 184.81 65.3101L189.96 65.2801C190.12 65.2801 190.25 65.1801 190.29 65.0301C191.44 60.0101 190.63 54.4301 190.63 54.4301V54.4001C190.53 53.7701 189.95 53.3101 189.28 53.3101C188.31 53.3101 186.67 53.3101 185.68 53.3101H185.52ZM174.27 46.4701H174.19C174.19 46.4701 173.5 47.3101 173.69 53.4101L169.16 53.6201C169.58 51.2101 169.83 48.5501 169.98 46.2501C170.89 44.8501 173.25 42.0401 177.88 42.7901C180.25 43.1701 181.2 44.1901 181.8 45.9001L174.27 46.4601V46.4701ZM181.31 53.1401L177.43 53.2701C177.05 50.6101 177.56 49.9301 177.56 49.9301L182.15 49.5901C182.03 50.8101 181.72 52.0401 181.3 53.1401" fill="#040000"/>
<path d="M221.63 61.85L192.64 62.48C192.53 62.48 192.47 62.57 192.4 62.66C192.04 63.18 191.43 64.42 191.73 66.67C191.75 66.81 191.87 66.86 192.01 66.89L221.14 66.78C221.23 66.78 221.32 66.74 221.36 66.68C222.43 65.44 222.05 62.53 221.9 62.01C221.87 61.91 221.75 61.83 221.62 61.85" fill="#040000"/>
<path d="M224.71 83.79C221.73 84.16 216.83 84.64 214.29 84.89C215.26 83.77 216.07 81.74 216.5 80.5L219.23 80.39C219.38 80.38 219.58 80.36 219.65 80.21C220.91 78.54 221.56 76.47 221.45 74.99C221.35 73.66 220.67 72.55 219.89 71.69C218.67 70.34 217 69.5 215.21 69.14C210.42 68.17 204.54 68.68 201.39 69.72C200.04 70.17 198.8 70.79 197.86 71.4L197.77 69.28C197.75 68.97 197.68 68.92 197.39 68.84C196.56 68.62 194.35 68.7201 192.11 69.2301C191.83 69.2901 191.62 69.42 191.51 69.6C191.43 69.73 191.4 69.89 191.44 70.06L193.22 80.4C193.26 80.62 193.45 80.77 193.67 80.77C193.9 80.77 194.07 80.77 194.57 80.77H196.46C196.99 82.05 197.9 84.04 198.96 85.47C192.34 85.42 188.8 84.83 188.8 84.83C188.7 84.83 188.63 84.91 188.57 84.99C188.19 85.48 187.43 87.2401 187.57 89.4101C187.57 89.5401 187.65 89.61 187.82 89.63C187.82 89.63 192.93 90.07 224.23 89.71C224.32 89.71 224.4 89.67 224.45 89.59C225.54 87.91 225.06 84.77 224.95 84.04C224.93 83.9 224.83 83.79 224.7 83.8L224.71 83.79ZM208.4 84.83C207.43 84.97 206.26 84.9901 205.31 84.9801C203.73 83.0501 203.07 81.43 202.8 80.37L210.62 80.34C210.21 81.59 209.47 83.5 208.41 84.83H208.4ZM198.09 76.57L198.02 74.89C201.41 73.21 205.06 72.09 210.58 72.62C212.7 72.82 214.25 73.57 214.5 74.72C214.61 75.23 214.46 75.74 214.08 76.17L198.09 76.57Z" fill="#040000"/>
<path d="M256.89 55.61L238.6 56.28C238.49 56.28 238.42 56.38 238.35 56.47C237.96 57.03 237.21 58.68 237.52 61.09C237.54 61.24 237.67 61.29 237.82 61.33H256.38C256.48 61.33 256.57 61.29 256.62 61.23C257.75 59.89 257.35 56.33 257.19 55.78C257.16 55.68 257.03 55.59 256.9 55.61" fill="#040000"/>
<path d="M245.34 36.8899C243.85 37.9099 242.93 39.0699 242.41 39.7499C242.07 40.1899 241.8 40.6599 241.63 41.1599C241.04 42.9499 242.09 43.5999 243.15 43.8199C243.15 43.8199 244.46 44.0999 246.25 44.0499C248.59 43.9899 250.93 43.8599 253.2 43.4199C253.38 43.3799 253.53 43.2799 253.6 43.1299C253.84 42.5699 254.36 41.0099 254 38.4899C253.97 38.2399 253.69 38.0699 253.39 38.0899L250.31 38.3699C246.88 38.6799 245.89 38.0299 245.84 37.1499C245.81 36.5499 246.06 36.3999 245.35 36.8799" fill="#040000"/>
<path d="M258.23 46.0398C258.18 45.9198 258.01 45.8598 257.85 45.8698L243.25 46.7298C239.48 46.9398 238.12 45.8498 238.19 44.8898C238.24 44.2298 238.61 44.1498 237.66 44.5498C236.65 44.9798 236.29 45.3598 235.87 45.7698C235.87 45.7698 234.25 47.4898 234.24 49.0798C234.23 50.9398 235.72 52.0698 237.59 52.2098C242.33 52.5698 251.56 51.9598 257.51 51.5798C257.71 51.5698 257.79 51.4198 257.86 51.2798C258.54 50.0198 258.97 47.9298 258.22 46.0298" fill="#040000"/>
<path d="M256.89 64.33L238.6 65C238.49 65 238.42 65.1 238.35 65.19C237.96 65.75 237.21 67.4 237.52 69.81C237.54 69.96 237.67 70.01 237.82 70.05H256.38C256.48 70.05 256.57 70.01 256.62 69.95C257.75 68.61 257.35 65.05 257.19 64.5C257.16 64.4 257.03 64.31 256.9 64.33" fill="#040000"/>
<path d="M270.54 67.33C270.63 67.33 270.7 67.41 270.69 67.5C269.23 83.32 259.25 82.53 258.42 82.52C258.2 82.52 258.02 82.37 258.03 82.2L258.17 74.49C258.17 74.18 258.22 74.12 258.61 74.12C261.33 74.12 265.16 74.22 266.39 67.41C266.4 67.34 266.47 67.28 266.54 67.28L270.55 67.32L270.54 67.33Z" fill="#040000"/>
<path d="M280.63 64.9198C280.52 64.8498 280.39 64.8298 280.26 64.8298C279.69 64.8598 278.25 65.1898 275.73 67.3898C275.57 67.5298 275.62 67.6198 275.8 67.7798C277.05 68.8898 279.03 71.2898 279.97 77.5098C280.01 77.7498 280.23 77.8398 280.47 77.6998L287.3 73.9298C287.71 73.6998 287.83 73.6698 287.75 73.4898C287.19 72.1498 284.84 67.5698 280.62 64.9198" fill="#040000"/>
<path d="M303.17 76.3C298.58 69.51 293 66.04 292.41 65.99C292.35 65.99 292.3 65.99 292.25 66.02C290.16 67.12 288.73 68.4 288.37 68.9C288.3 69 288.34 69.11 288.45 69.19C289.91 70.27 292.9 73.39 295.26 77.38L289.12 76.35C289.07 76.34 289.03 76.37 289.03 76.42C288.72 81.37 286.3 83.39 280.63 83.39C276.31 83.39 274.74 82.11 274.93 77.78C275.11 73.63 275.71 71.01 275.98 69.86C276 69.77 275.94 69.68 275.83 69.66H272.21C272.1 69.64 271.99 69.69 271.96 69.77C271.96 69.77 269.42 75.46 269.42 81.79C269.42 81.79 269.13 88.63 275.59 89.62C277.05 89.85 280.14 89.97 284.03 89.81C291.11 89.81 295.23 85.48 296.03 78.77C296.39 79.48 296.72 80.22 297 80.97C297.04 81.07 297.15 81.11 297.26 81.07C298.18 80.67 302.05 78.97 303.19 76.44C303.21 76.39 303.19 76.34 303.17 76.3" fill="#040000"/>
<path d="M238.63 88.42C238.64 88.58 238.74 88.64 238.85 88.68L254.95 88.55C255.02 88.55 255.09 88.51 255.13 88.44C256.64 85.32 257.16 81.63 257.32 80.14C257.36 79.72 257.39 79.31 257.37 78.89C257.26 76.9 256.5 75.27 255.12 74.03C253.31 72.41 250.71 71.95 249.05 71.95C246.35 71.95 244.3 72.95 242.79 74.22C242.76 73.52 242.74 73.13 242.74 73.13C242.76 72.96 242.68 72.81 242.59 72.77C242.14 72.6 238.74 72.64 237.54 73.21C237.33 73.31 237.2 73.63 237.23 73.95L238.63 88.42ZM251.26 83.93C251.17 84.14 250.9 84.32 250.67 84.32L243.31 84.49C243.18 82.16 243.07 79.99 242.98 78.2C244.61 77.27 247 76.39 249.45 77.24C249.98 77.42 250.48 77.7 250.88 78.08C251.79 78.94 252.51 80.81 251.25 83.93" fill="#040000"/>
<path d="M272.46 57.2799C271.44 57.8099 269.95 57.9899 268.92 57.9999C267.67 57.9999 264.86 58.0899 264.86 58.0899C264.74 58.0899 264.72 58.1499 264.66 58.2299C264.36 58.6399 263.75 61.4799 264.16 63.5299C264.18 63.6399 264.26 63.6799 264.38 63.7099C264.38 63.7099 275.83 63.8499 295.27 63.2899C295.41 63.2899 295.57 63.2199 295.63 63.0399C296.21 61.1999 296.23 58.0499 296.13 57.4599C296.11 57.3499 296.02 57.2599 295.91 57.2699L279.63 57.6399C282.91 55.8899 283.37 51.1299 283.37 51.1299C286.76 51.1199 291.33 51.2599 297.1 51.1099C297.19 51.1099 297.27 51.0599 297.32 50.9899C298.4 49.3399 298.01 45.1999 297.89 44.4899C297.87 44.3599 297.76 44.2499 297.63 44.2699C293.51 44.8499 288.6 45.3399 283.47 45.4599L283.7 37.2199C283.7 36.5899 283.62 36.5799 283.09 36.5199C282.61 36.4599 276.43 36.4699 275.74 36.7899C275.6 36.8599 275.54 37.0299 275.55 37.3099C275.55 37.3099 275.87 40.5699 276.03 45.5099C268.36 45.6899 262.56 45.5099 262.56 45.5099C262.46 45.5099 262.39 45.5899 262.32 45.6699C261.95 46.1499 261.36 48.6499 261.68 51.1699C261.7 51.2999 261.8 51.3299 261.94 51.3799C261.94 51.3799 262.04 51.5599 275.98 51.2799C275.98 51.2799 275.56 55.6499 272.42 57.2699" fill="#040000"/>
<path d="M4.49035 12.9601C5.61035 13.9101 7.03035 14.6001 8.71035 15.0201C10.4404 15.4401 12.3404 15.8201 14.3604 16.1201C16.3804 16.4301 18.2804 16.6401 20.0104 16.7601C21.7804 16.8801 23.2804 17.1001 24.4704 17.4201C24.9804 17.5501 26.5304 17.9601 26.5304 19.0301C26.5304 19.8501 25.6904 20.4801 23.9604 20.9301C22.4204 21.3301 20.4704 21.5401 18.1704 21.5401C15.4104 21.5401 12.7104 21.3501 10.1504 20.9701C7.56035 20.5901 5.92035 20.3001 5.13035 20.0801C4.68035 19.9601 4.30035 19.8401 3.95035 19.7301C3.92035 19.7301 3.88035 19.7501 3.88035 19.8001V26.5201C3.88035 26.7701 4.08035 26.9801 4.34035 26.9901L18.1704 27.5201C23.2404 27.5201 27.3104 26.6701 30.2804 24.9901C33.2204 23.3301 34.6504 21.0601 34.6504 18.0501C34.6504 16.7501 34.1203 15.6901 33.0303 14.8101C31.9103 13.9101 30.4904 13.2501 28.8104 12.8501C27.0904 12.4401 25.1904 12.1001 23.1604 11.8301C21.1404 11.5601 19.2304 11.3501 17.5004 11.2101C15.7304 11.0701 14.2304 10.8301 13.0304 10.5001C12.5204 10.3601 10.9804 9.93006 10.9804 8.86006C10.9804 7.00006 13.3304 6.10006 18.1704 6.10006C21.0304 6.10006 23.7704 6.28006 26.3104 6.65006C28.8804 7.02006 30.5104 7.31006 31.2704 7.54006C31.6504 7.66006 31.9904 7.77006 32.2704 7.87006C32.2804 7.87006 32.2904 7.87006 32.3004 7.87006C32.3404 7.87006 32.4004 7.84006 32.4004 7.77006V0.850059C32.4004 0.740059 32.3104 0.650059 32.2004 0.650059L18.1704 0.0600586C13.1104 0.0600586 9.24035 0.900059 6.66035 2.55006C4.10035 4.19006 2.86035 6.49006 2.86035 9.58006C2.86035 10.9201 3.39035 12.0301 4.48035 12.9601" fill="#040000"/>
<path d="M64.5402 0.729971C64.2402 0.729971 63.9702 0.899971 63.8402 1.15997C62.3902 4.08997 60.6902 6.92997 58.7702 9.57997L57.3802 11.56C57.3102 11.67 57.1802 11.73 57.0502 11.73C56.9202 11.73 56.8002 11.67 56.7202 11.57L55.2202 9.57997C53.3302 6.91997 51.6402 4.08997 50.2002 1.15997C50.0702 0.899971 49.8002 0.729971 49.5002 0.729971H37.7402V0.769971C40.1502 3.20997 42.3702 5.84997 44.3402 8.60997L52.8402 20.4C52.8902 20.47 52.9102 20.54 52.9102 20.62C52.9102 23.24 52.5702 25.48 51.9102 27.27H62.1702L62.0102 26.73C61.8002 26.05 61.6002 25.11 61.4002 23.91C61.2102 22.72 61.1102 21.61 61.1102 20.62C61.1102 20.54 61.1402 20.46 61.1802 20.4L70.7102 7.14997C72.3702 4.84997 74.2302 2.69997 76.2502 0.739971C76.2502 0.719971 76.2402 0.719971 76.2302 0.719971H64.5302L64.5402 0.729971Z" fill="#040000"/>
<path d="M106.75 24.9901C109.69 23.3301 111.12 21.0601 111.12 18.0501C111.12 16.7501 110.59 15.6901 109.5 14.8101C108.38 13.9101 106.96 13.2501 105.28 12.8501C103.56 12.4401 101.66 12.1001 99.6303 11.8201C97.6103 11.5501 95.7003 11.3401 93.9703 11.2001C92.2003 11.0601 90.7003 10.8201 89.5103 10.4901C89.0003 10.3501 87.4603 9.92006 87.4603 8.85006C87.4603 6.99006 89.8103 6.09006 94.6503 6.09006C97.5103 6.09006 100.25 6.27006 102.79 6.64006C105.36 7.01006 106.99 7.30006 107.75 7.53006C108.08 7.63006 108.37 7.73006 108.63 7.82006C108.65 7.82006 108.68 7.83006 108.7 7.83006C108.79 7.83006 108.89 7.76006 108.89 7.65006V1.40006C108.89 0.990059 108.56 0.650059 108.13 0.630059L94.6303 0.0600586C89.5703 0.0600586 85.6903 0.900059 83.1203 2.55006C80.5603 4.19006 79.3203 6.49006 79.3203 9.58006C79.3203 10.9201 79.8503 12.0201 80.9403 12.9501C82.0603 13.9001 83.4803 14.6001 85.1603 15.0101C86.8903 15.4301 88.7903 15.8101 90.8103 16.1101C92.8303 16.4201 94.7303 16.6301 96.4603 16.7501C98.2303 16.8701 99.7303 17.0901 100.92 17.4101C101.43 17.5401 102.98 17.9501 102.98 19.0201C102.98 19.8401 102.14 20.4701 100.41 20.9201C98.8703 21.3201 96.9203 21.5301 94.6203 21.5301C91.8603 21.5301 89.1603 21.3401 86.6003 20.9601C84.0103 20.5801 82.3703 20.2901 81.5803 20.0701C81.2003 19.9701 80.8603 19.8701 80.5703 19.7801C80.5503 19.7801 80.5303 19.7801 80.5103 19.7801C80.4203 19.7801 80.3303 19.8501 80.3303 19.9601V26.2401C80.3303 26.6501 80.6703 26.9901 81.0903 27.0101L94.6203 27.5301C99.6903 27.5301 103.76 26.6801 106.73 25.0001" fill="#040000"/>
<path d="M114.42 8.08998L115.09 7.88998C115.95 7.63998 117.32 7.38998 119.26 7.14998C121.18 6.90998 123.28 6.77998 125.5 6.77998C125.73 6.77998 125.91 6.95998 125.91 7.16998V14C125.91 18.37 125.53 22.83 124.79 27.27H135.36L135.17 26.05C135 24.9 134.81 23.31 134.6 21.21C134.39 19.13 134.27 17.13 134.23 15.25V7.16998C134.23 6.94998 134.41 6.77998 134.64 6.77998C136.94 6.77998 139.11 6.91998 141.09 7.19998C143.11 7.47998 144.38 7.69998 144.96 7.85998C145.25 7.93998 145.5 8.00998 145.71 8.07998V0.72998H114.41V8.09998L114.42 8.08998Z" fill="#040000"/>
<path d="M159.8 7.17994C160.18 5.71994 160.6 4.52994 161.05 3.64994C161.5 2.76994 162.04 1.93994 162.64 1.16994C163.08 0.609941 163.42 0.199941 163.67 -0.0600586H155.86L155.82 -0.0100586C155.68 0.169941 155.57 0.349941 155.48 0.529941C155.34 0.799941 155.18 1.14994 155.01 1.57994C154.75 2.22994 154.48 3.01994 154.21 3.91994C153.95 4.80994 153.72 5.95994 153.54 7.35994C153.37 8.64994 153.28 10.0199 153.26 11.4299H159.24C159.27 9.95994 159.46 8.53994 159.81 7.18994" fill="#040000"/>
<path d="M167.85 26.87L178.31 27.27C178.49 27.27 178.64 27.14 178.67 26.95L179.02 24.91C179.14 24.14 179.48 23.47 180.04 22.94C180.61 22.4 181.29 22.12 182.08 22.12H190.01C190.76 22.12 191.42 22.39 191.99 22.94C192.55 23.47 192.91 24.13 193.06 24.91L193.37 26.94C193.4 27.13 193.55 27.27 193.74 27.27H204.27C204.27 27.27 204.33 27.25 204.34 27.23C204.36 27.19 204.34 27.17 204.34 27.16C202.82 25.02 201.52 22.72 200.5 20.3L192.33 1.02998C192.25 0.84998 192.07 0.72998 191.87 0.72998H180.12C179.92 0.72998 179.74 0.84998 179.66 1.02998L171.09 21.3C170.22 23.34 169.11 25.24 167.79 26.97C167.79 26.97 167.76 27.01 167.79 27.04C167.8 27.07 167.83 27.08 167.86 27.08L167.85 26.87ZM181.46 15.69L183.19 10.05C183.26 9.72998 183.36 9.46998 183.48 9.23998C184.03 8.20998 184.8 7.58998 185.99 7.58998C187.39 7.58998 188.41 8.43998 188.75 9.65998L190.52 15.69C190.55 15.81 190.52 15.93 190.45 16.03C190.37 16.13 190.26 16.18 190.13 16.18H181.85C181.72 16.18 181.61 16.12 181.53 16.03C181.45 15.93 181.43 15.81 181.46 15.69Z" fill="#040000"/>
<path d="M209.65 2.15997C209.82 3.43997 210.01 5.24997 210.22 7.51997C210.43 9.79997 210.53 11.97 210.53 13.99C210.53 18.25 210.17 22.61 209.47 26.93C209.45 27.04 209.5 27.12 209.54 27.16C209.57 27.2 209.64 27.26 209.76 27.26H219.51C219.63 27.26 219.7 27.2 219.73 27.16C219.76 27.12 219.82 27.04 219.8 26.93L219.62 25.78C219.41 24.51 219.21 22.72 219.02 20.46C218.83 18.18 218.74 16.01 218.74 13.99C218.74 9.71997 219.1 5.36997 219.8 1.04997C219.82 0.939971 219.77 0.859971 219.73 0.819971C219.7 0.779971 219.63 0.719971 219.51 0.719971H209.76C209.64 0.719971 209.57 0.779971 209.54 0.819971C209.51 0.859971 209.45 0.939971 209.47 1.04997L209.65 2.15997V2.15997Z" fill="#040000"/>
<path d="M236.79 27.1699C236.79 27.1699 236.87 27.0599 236.86 26.9499L236.68 25.7999C235.81 19.2399 236.2 13.3999 236.2 13.3999C236.2 13.2199 236.33 13.0599 236.52 13.0199C236.55 13.0199 236.58 13.0199 236.6 13.0199C236.76 13.0199 236.9 13.1099 236.97 13.2499L242.33 26.5499C242.53 26.9899 242.83 27.2699 243.48 27.2699H249.39C250.09 27.2699 250.34 26.9799 250.55 26.5399L255.99 13.1399C256.06 12.9999 256.2 12.9099 256.36 12.9099C256.39 12.9099 256.42 12.9099 256.44 12.9099C256.63 12.9499 256.76 13.1099 256.76 13.2899C256.76 17.5599 256.78 22.6099 256.1 26.9399C256.08 27.0499 256.13 27.1299 256.17 27.1599C256.2 27.1999 256.27 27.2499 256.38 27.2499H265.47C265.67 27.2499 265.94 27.2499 266.08 27.0999C266.21 26.9499 266.19 26.6899 266.16 26.4899L266.06 25.7699C265.2 19.0899 264.99 13.9699 264.99 13.9699C264.99 9.85994 265.32 5.66994 265.97 1.49994C266 1.29994 265.94 1.09994 265.8 0.939941C265.66 0.779941 265.46 0.689941 265.24 0.689941H254.87C254.26 0.689941 253.95 0.969941 253.75 1.38994L246.83 17.4899C246.77 17.6299 246.62 17.7199 246.46 17.7199C246.3 17.7199 246.16 17.6299 246.09 17.4899L239.12 1.38994C238.93 0.959941 238.76 0.689941 238 0.689941H227.74C227.53 0.689941 227.32 0.779941 227.18 0.939941C227.04 1.09994 226.98 1.29994 227.01 1.50994L227.11 2.12994C227.28 3.40994 227.47 5.21994 227.68 7.48994C227.89 9.76994 227.99 11.9399 227.99 13.9599C227.99 18.0799 227.72 22.2899 227.06 26.4599C227.03 26.6499 227 26.9499 227.14 27.0999C227.27 27.2499 227.55 27.2299 227.75 27.2299H236.53C236.64 27.2299 236.71 27.1699 236.75 27.1299" fill="#040000"/>
<path d="M273.94 7.26998C274.14 9.52998 274.25 11.7 274.25 13.7C274.25 17.87 273.91 22.12 273.23 26.35C273.21 26.48 273.25 26.62 273.34 26.72C273.43 26.82 273.56 26.88 273.69 26.88H300.24C300.45 26.88 300.62 26.71 300.62 26.51V19.94C298.53 20.86 295.35 21.33 291.16 21.33C286.59 21.33 282.39 20.76 282.35 20.75C282.15 20.72 282.01 20.56 282.01 20.36V16.96C282.01 16.75 282.19 16.58 282.41 16.58H297.86V11.43H282.41C282.19 11.43 282.01 11.25 282.01 11.04V7.20998C282.01 7.00998 282.16 6.84998 282.35 6.81998C282.4 6.81998 287.29 6.14998 292.15 6.14998C296.11 6.14998 298.95 6.57998 300.62 7.43998V1.09998C300.62 0.89998 300.45 0.72998 300.24 0.72998H273.69C273.55 0.72998 273.42 0.78998 273.33 0.88998C273.24 0.98998 273.2 1.11998 273.22 1.24998L273.37 2.14998C273.54 3.42998 273.72 5.16998 273.93 7.46998" fill="#040000"/>
<path d="M6.6 111.99C4.91 111.99 3.56 111.42 2.54 110.28C1.51 109.13 1 107.57 1 105.59C1 103.61 1.52 102.06 2.54 100.93C3.55 99.85 4.9 99.3 6.6 99.3C8.3 99.3 9.65 99.85 10.66 100.94C11.69 102.07 12.2 103.61 12.2 105.57C12.2 107.53 11.69 109.12 10.66 110.26C9.63 111.4 8.28 111.98 6.59 111.98L6.6 111.99ZM6.6 109.46C7.41 109.46 8.05 109.11 8.51 108.41C8.98 107.72 9.22 106.78 9.22 105.58C9.22 104.38 8.99 103.49 8.52 102.82C8.05 102.15 7.42 101.82 6.61 101.82C5.8 101.82 5.16 102.15 4.7 102.81C4.24 103.47 4.01 104.4 4.01 105.58C4.01 106.76 4.24 107.72 4.71 108.41C5.18 109.11 5.81 109.45 6.61 109.45L6.6 109.46Z" fill="black"/>
<path d="M16.1801 111.85C15.2301 111.85 14.7001 111.82 14.6001 111.77C14.7301 110.53 14.8001 108.89 14.8001 106.84V99.54H17.7901L20.8301 105.39L22.0301 108.1H22.1101C22.1101 108.1 22.1101 108.02 22.0901 107.95C21.8401 105.98 21.7101 104.52 21.7101 103.58V101.56C21.7101 100.76 21.6801 100.09 21.6301 99.54C21.6701 99.49 22.1701 99.46 23.1101 99.46C24.0501 99.46 24.5701 99.49 24.6401 99.54C24.5501 100.35 24.5101 101.37 24.5101 102.6V111.77H21.5201L18.5001 105.87L17.3001 103.19H17.2201C17.2401 103.43 17.2801 103.81 17.3301 104.32C17.5001 105.85 17.5901 106.98 17.5901 107.7V109.74C17.5901 110.54 17.6201 111.21 17.6701 111.76C17.6301 111.81 17.1301 111.84 16.1701 111.84L16.1801 111.85Z" fill="black"/>
<path d="M35.3702 111.93C34.3102 111.82 33.0302 111.77 31.5202 111.77H27.6802V99.55H30.6202V109.31H33.0002C33.7902 109.31 34.5802 109.28 35.3702 109.21C35.4002 109.25 35.4202 109.7 35.4202 110.55C35.4202 111.4 35.4002 111.86 35.3702 111.94V111.93Z" fill="black"/>
<path d="M37.8198 111.76V99.54H40.7598V111.76H37.8198Z" fill="black"/>
<path d="M45.2802 111.85C44.3302 111.85 43.8002 111.82 43.7002 111.77C43.8302 110.53 43.9002 108.89 43.9002 106.84V99.54H46.8902L49.9302 105.39L51.1302 108.1H51.2102C51.2102 108.1 51.2102 108.02 51.1902 107.95C50.9402 105.98 50.8102 104.52 50.8102 103.58V101.56C50.8102 100.76 50.7802 100.09 50.7302 99.54C50.7702 99.49 51.2702 99.46 52.2102 99.46C53.1502 99.46 53.6702 99.49 53.7402 99.54C53.6502 100.35 53.6102 101.37 53.6102 102.6V111.77H50.6202L47.6002 105.87L46.4002 103.19H46.3202C46.3402 103.43 46.3802 103.81 46.4302 104.32C46.6002 105.85 46.6902 106.98 46.6902 107.7V109.74C46.6902 110.54 46.7202 111.21 46.7702 111.76C46.7302 111.81 46.2302 111.84 45.2702 111.84L45.2802 111.85Z" fill="black"/>
<path d="M64.7199 111.93C63.6199 111.82 62.2999 111.77 60.7599 111.77H58.7699C57.9899 111.77 57.3299 111.8 56.7799 111.85C56.6899 111.85 56.6499 111.82 56.6499 111.77C56.7499 111.35 56.7899 110.52 56.7799 109.26V102.61C56.7799 101.38 56.7399 100.36 56.6499 99.5501C56.6499 99.5001 56.6899 99.4701 56.7799 99.4701C57.3099 99.5301 57.9499 99.5501 58.7199 99.5501H60.6599C61.8199 99.5501 63.1099 99.5001 64.5399 99.3901C64.5699 99.4701 64.5899 99.9201 64.5899 100.75C64.5899 101.58 64.5699 102.03 64.5399 102.08C63.9499 102.01 63.1499 101.98 62.1399 101.98H59.7199V104.25H61.7699C62.3799 104.25 63.0599 104.22 63.8099 104.17C63.8399 104.21 63.8599 104.65 63.8599 105.48C63.8599 106.31 63.8399 106.75 63.8099 106.79C63.2399 106.74 62.5599 106.71 61.7699 106.71H59.7199V109.31H62.2199C62.9299 109.31 63.7599 109.27 64.7199 109.2C64.7499 109.25 64.7699 109.71 64.7699 110.56C64.7699 111.41 64.7499 111.87 64.7199 111.95V111.93Z" fill="black"/>
<path d="M75.3498 111.99C74.5298 111.99 73.7298 111.84 72.9498 111.55C72.1198 111.24 71.3898 110.81 70.7798 110.24L72.4398 108.22C72.8898 108.59 73.3698 108.89 73.8898 109.12C74.4398 109.35 74.9498 109.46 75.4198 109.46C76.4798 109.46 77.0098 109.1 77.0098 108.39C77.0098 108.09 76.8698 107.85 76.5998 107.65C76.4198 107.52 76.0598 107.33 75.4998 107.09C75.3998 107.06 75.3298 107.03 75.2898 107.01L73.7298 106.35C73.0098 106.07 72.4298 105.67 71.9998 105.15C71.4998 104.54 71.2398 103.82 71.2398 103C71.2398 101.96 71.6598 101.09 72.4898 100.39C73.3298 99.6701 74.3998 99.3101 75.6798 99.3101C76.3998 99.3101 77.1098 99.4501 77.7998 99.7201C78.5098 99.9901 79.1298 100.39 79.6598 100.92L78.1998 102.76C77.3798 102.14 76.5398 101.82 75.6898 101.82C75.2298 101.82 74.8698 101.91 74.6098 102.08C74.3498 102.26 74.2198 102.51 74.2198 102.84C74.2198 103.13 74.3698 103.37 74.6798 103.58C74.8898 103.71 75.2898 103.9 75.8998 104.14C75.9798 104.17 76.0398 104.19 76.0798 104.21L77.6098 104.82C79.2198 105.47 80.0298 106.58 80.0298 108.17C80.0298 109.23 79.6198 110.13 78.8098 110.85C77.9298 111.62 76.7798 112 75.3598 112L75.3498 111.99Z" fill="black"/>
<path d="M82.3799 111.76V99.54H85.3199V104.19H89.3499V99.54H92.2599V111.76H89.3499V106.73H85.3199V111.76H82.3799Z" fill="black"/>
<path d="M100.47 111.99C98.7801 111.99 97.4301 111.42 96.4101 110.28C95.3801 109.13 94.8701 107.57 94.8701 105.59C94.8701 103.61 95.3901 102.06 96.4101 100.93C97.4201 99.85 98.7701 99.3 100.47 99.3C102.17 99.3 103.52 99.85 104.53 100.94C105.56 102.07 106.07 103.61 106.07 105.57C106.07 107.53 105.56 109.12 104.53 110.26C103.5 111.4 102.15 111.98 100.46 111.98L100.47 111.99ZM100.47 109.46C101.28 109.46 101.92 109.11 102.38 108.41C102.85 107.72 103.09 106.78 103.09 105.58C103.09 104.38 102.86 103.49 102.39 102.82C101.92 102.15 101.29 101.82 100.48 101.82C99.6701 101.82 99.0301 102.15 98.5701 102.81C98.1101 103.47 97.8801 104.4 97.8801 105.58C97.8801 106.76 98.1101 107.72 98.5801 108.41C99.0501 109.11 99.6801 109.45 100.48 109.45L100.47 109.46Z" fill="black"/>
<path d="M108.67 111.76V102.59C108.67 101.36 108.63 100.34 108.54 99.5299C108.54 99.4599 108.58 99.4299 108.67 99.4299C109.2 99.4999 109.91 99.5299 110.81 99.5299H112.96C114.45 99.5299 115.61 99.8099 116.43 100.38C117.39 101.05 117.88 102.09 117.88 103.5C117.88 104.91 117.4 105.94 116.43 106.69C115.56 107.36 114.44 107.69 113.04 107.69H111.61V111.75H108.67V111.76ZM111.61 105.38H112.89C114.3 105.38 115.01 104.76 115.01 103.51C115.01 102.92 114.82 102.49 114.44 102.21C114.09 101.97 113.55 101.85 112.81 101.85H111.61V105.38V105.38Z" fill="black"/>
</g>
<g clip-path="url(#clip1_467_10114)">
<path d="M144.62 436.33C135.81 437.69 129.62 437.26 125.43 436.98C125.43 436.98 130.82 435.67 133.98 432.48C135.26 431.19 135.04 428.55 133.46 428.24C121.04 425.82 109.63 427.87 105.6 428.78C106.59 427.7 107.3 426.64 107.83 425.65C111.69 426.21 117.71 426.24 125.55 426.05C125.55 426.05 137.72 425.56 141.1 420.51C142.21 418.85 141.49 417.07 140.96 416.38C140.51 415.79 139.58 415.46 138.83 415.39C137.4 415.24 136.57 415.58 136.19 415.8C136.11 415.85 136.14 415.96 136.23 415.98C137.14 416.1 137.51 417.16 137.11 417.81C136.51 418.78 134.86 419.37 134.86 419.37C130.65 421.18 123.3 421.7 116.29 420.96L120.72 416.86C121.06 416.55 121.07 416.43 121.02 416.33C120.75 415.77 118.01 411.61 110.77 409.86H110.64C110.22 409.89 108.35 410.28 106.65 413.5C106.58 413.64 106.68 413.8 106.86 413.86C108.07 414.25 112.45 415.97 114.24 420.71C110.1 420.09 106.8 418.98 105.8 417.38C104.28 414.96 105.39 410.95 105.86 409.53C117.59 408.29 125.31 408.68 131.25 408.84L134.71 408.96C135 410.62 134.76 412.66 132.5 413.95C129 410.87 126.2 410.39 125.65 410.33C125.59 410.33 125.53 410.33 125.47 410.36C123.14 411.37 121.83 412.73 121.41 413.22C121.32 413.32 121.36 413.45 121.48 413.52C122.41 414.03 126 416.19 127.42 420.3C127.47 420.44 128.72 419.72 128.9 419.62C131.19 418.39 134.08 415.91 134.08 415.91C134.22 415.83 134.25 415.66 134.13 415.54C133.73 415.11 133.33 414.72 132.94 414.36H143.38C143.57 414.36 143.72 414.22 143.72 414.06V406.68C143.72 406.68 143.72 406.66 143.71 406.65C143.71 405.98 140.13 405.46 139.07 405.33C137.83 405.17 136.06 404.98 133.71 404.82C134.06 404.38 135.96 401.73 132.42 399.36C135.15 399.14 138.01 398.89 141 398.61C141.09 398.61 141.18 398.56 141.23 398.49C142.34 396.93 141.9 392.74 141.74 392.09C141.71 391.97 141.58 391.86 141.45 391.89C117.29 396.76 98.9499 396.47 90.0899 396.23C87.6999 396.16 88.2599 395.41 89.0399 394.86C89.2699 394.69 89.0799 394.44 88.7699 394.45C85.0199 394.59 82.9899 396.05 82.9899 396.05C81.4799 397.17 82.1799 398.92 82.8999 399.42C82.8999 399.42 83.8699 400.1 85.1699 400.25C85.8899 400.33 87.1999 400.44 89.4099 400.57C89.6099 401.88 90.4499 404.4 93.7799 405.65C92.2099 405.77 90.5899 405.91 88.9299 406.06H88.9199L82.9999 406.64C82.8399 406.64 82.7099 406.76 82.7099 406.9V414.12C82.7099 414.26 82.8399 414.38 82.9999 414.38H90.3399C90.4999 414.38 90.6399 414.26 90.6399 414.12V411.8C92.7999 411.41 94.8599 411.07 96.8299 410.77C96.4199 418.21 85.2399 418.03 83.1099 417.96C82.8999 417.96 82.7199 418.09 82.7199 418.26V424.97C82.7199 425.13 82.8699 425.26 83.0699 425.27C85.4899 425.39 99.8399 425.4 99.9499 410.19C101.24 410.01 101.29 410 102.49 409.85C101.77 411.19 100.3 416.03 100.46 420.11C100.54 422.14 102.28 423.62 104.16 424.52C101.6 426.72 95.9899 428.71 83.7499 427.78C83.4599 427.76 83.2299 427.96 83.2799 428.18L85.1899 436.07C85.2299 436.24 85.4399 436.36 85.6599 436.35C93.3999 435.81 98.6099 433.95 102.12 431.69C103.14 432.97 104.95 434.79 108 436.63C98.3499 437.52 93.0699 438.15 84.9199 437.73C84.4799 437.71 84.1899 437.63 83.9399 438.26L81.4499 443.4C81.0599 444.18 81.0699 444.4 82.3599 444.4C93.9999 444.4 106.52 442.57 116.21 440.29C122.5 442.35 130.35 444.25 142.53 444.27C142.65 444.27 142.78 444.16 142.82 444.05L145.06 436.63C145.17 436.33 144.88 436.23 144.71 436.26L144.62 436.33ZM122.57 399.94C126.89 401.32 125.34 403.84 124.96 404.36C122.91 404.33 120.64 404.32 118.14 404.35C118.43 403.5 118.76 401.61 116.69 400.28C118.56 400.19 120.51 400.08 122.56 399.95L122.57 399.94ZM103 404.91C103.98 404.42 104.57 403.99 104.57 403.99C100.74 403.41 99.6799 401.96 99.5299 400.74C101.93 400.74 104.63 400.71 107.67 400.63C109.61 401.82 109.78 403.46 109.6 404.58C107.52 404.66 105.32 404.77 103.01 404.91H103ZM106.85 431.32C106.85 431.32 106.84 431.26 106.87 431.26C107.84 431.11 117.55 429.78 125.35 430.93C126.33 431.07 126.14 431.16 125.97 431.33C123.61 433.81 116.16 435.61 116.16 435.61C112.15 434.42 108.89 432.76 106.86 431.31" fill="#040000"/>
<path d="M17.3301 425.83C16.0701 433.52 4.06012 433.11 1.57012 433.03C1.33012 433.03 1.12012 433.18 1.12012 433.39V441.07C1.12012 441.26 1.30012 441.42 1.53012 441.43C4.36012 441.57 20.9501 442.99 20.9501 425.86H17.3401L17.3301 425.83Z" fill="#040000"/>
<path d="M29.7803 391.61C27.9503 392.48 27.2103 394.85 28.0203 396.7C28.2603 397.25 28.5703 397.88 28.9503 398.55C28.9703 398.59 29.0003 398.64 29.0303 398.68C14.6303 399.05 5.73026 397.65 5.73026 397.65C5.62026 397.65 5.54026 397.74 5.47026 397.83C5.06026 398.37 4.22026 399.95 4.37026 402.34C4.37026 402.49 4.50026 402.54 4.65026 402.59C4.65026 402.59 10.6603 403.8 24.8803 404.12V411.65C24.8803 411.65 25.3703 422.9 21.6003 423.09C23.0403 424.09 29.4003 425.42 31.4503 420.69C32.4203 418.44 32.4003 411.65 32.4003 411.65L32.4703 404.19C33.7203 404.19 35.0103 404.18 36.3603 404.16V423.5C36.3603 423.92 36.4803 423.88 36.6203 423.88H43.6203C43.7703 423.88 43.8803 423.92 43.8803 423.5V404C49.2403 403.83 55.2203 403.55 61.8503 403.12C61.9403 403.12 62.0303 403.07 62.0903 402.99C63.2803 401.14 63.1303 396.02 63.0203 395.22C63.0003 395.07 62.8803 394.93 62.7403 394.96C53.5903 396.75 45.1403 397.76 37.6903 398.28L37.2003 397.68C35.1103 395.34 35.6303 393.55 36.7203 393.11C37.4703 392.81 37.7403 393.02 36.8403 392.56C33.3803 390.83 31.1403 390.93 29.7003 391.62" fill="#040000"/>
<path d="M3.2002 426.1C6.6802 426.27 20.9402 426.63 20.9402 404.86H16.4902C16.4902 416.94 6.3102 416.23 3.2502 416.14C2.9502 416.14 2.7002 416.32 2.7002 416.56V425.69C2.7002 425.91 2.9202 426.1 3.2002 426.11" fill="#040000"/>
<path d="M49.9901 423.08C49.8501 423.02 49.7401 423.01 49.5701 423.12L44.3801 426.48C44.1901 426.57 44.2301 426.8 44.4301 426.85C46.0401 427.21 47.6201 428.54 48.6701 430.76C50.2401 435.12 44.2201 437.68 37.9801 438.28L42.9301 433.55C43.2701 433.22 43.2901 433.1 43.2401 433C40.5701 427.99 34.3701 425.89 33.2601 425.56C33.1101 425.52 32.9501 425.53 32.8201 425.6C31.9401 426.05 30.5501 427.01 28.7701 430.06C28.6901 430.2 28.8001 430.38 28.9801 430.43C30.2601 430.86 35.0901 432.83 36.6801 438.39C31.9701 438.64 27.4101 437.77 26.2001 435.71C24.3301 432.52 26.8301 426.49 27.0401 425.89C27.0401 425.87 27.0201 425.85 26.9901 425.85H23.5501C23.4101 426.1 21.8601 429.81 21.0001 433.8C19.9101 438.87 23.4001 443.86 28.5501 444.45C28.5501 444.45 31.6801 445.02 37.2601 444.78C49.3901 444.25 57.0701 439.7 57.0701 432.15C57.0701 427.18 52.0101 423.87 50.0001 423.08" fill="#040000"/>
<path d="M62.9703 427.1C62.8703 427 62.7203 426.95 62.5803 426.96C60.1003 427.12 58.4103 428.05 57.8303 428.41C57.7603 428.46 57.6603 428.58 57.7303 428.69C58.2003 429.46 60.8603 436.55 59.2003 441.39C59.1703 441.48 59.2603 441.57 59.3803 441.58C60.4703 441.6 65.4203 440.97 67.8903 439.12C67.9403 439.09 67.9603 439.04 67.9603 438.99C68.1803 433.39 64.0003 428.08 62.9703 427.11" fill="#040000"/>
<path d="M52.9601 404.51L47.8501 404.86C47.8501 428.23 62.1101 425.6 65.5901 425.43C65.8701 425.42 66.0901 425.23 66.0901 425.01V418.37C66.0901 418.13 65.8401 417.94 65.5401 417.95C62.4801 418.05 52.9701 419.02 52.9701 404.51" fill="#040000"/>
<path d="M200.08 391.47C199.98 391.5 199.89 391.62 199.92 391.76L200.23 396.93L193.25 397.33H193.13C193.13 397.33 191.71 401.73 192.57 415.51L221.49 414.93C221.49 414.93 223.16 411.11 222.3 397.32H222.26C222.24 397.17 221.96 396.93 221.96 396.93H213.52L213.79 391.93C213.81 391.79 213.73 391.67 213.63 391.64C213.09 391.49 209.66 391.09 208.37 392.2C208.31 392.25 208.28 392.44 208.27 392.54L208.44 397.32H205.35L205.44 392.77C205.44 392.68 205.4 392.48 205.34 392.43C204.05 391.32 200.62 391.72 200.09 391.87L200.08 391.47ZM196.95 402.07C196.95 402.07 198.42 402 200.58 401.91L200.77 404.62L196.7 404.73C196.7 404.73 196.65 404.75 196.63 404.76C196.69 403.75 196.8 402.81 196.94 402.07H196.95ZM197.26 410.78C196.95 410.05 196.76 409.08 196.66 408.02L201 407.99L201.21 410.85C199.73 410.85 198.37 410.83 197.26 410.79V410.78ZM213.23 401.64C214.36 401.65 215.37 401.68 216.18 401.74C216.49 402.39 216.69 403.24 216.81 404.18L213.06 404.29L213.23 401.65V401.64ZM212.84 408.03L216.94 408C216.89 408.97 216.79 409.87 216.66 410.57C216.66 410.57 215.04 410.64 212.68 410.73L212.85 408.03H212.84ZM205.22 401.76C206.34 401.73 207.49 401.7 208.63 401.68L208.75 404.41L205.16 404.51L205.23 401.76H205.22ZM205.06 408.03L208.9 408L209.02 410.79C207.72 410.83 206.35 410.86 204.99 410.89L205.06 408.04V408.03Z" fill="#040000"/>
<path d="M183.75 416.34H168.08C167.49 416.34 167.3 416.63 167.3 417.26C167.3 425.64 168.21 434.11 158.09 438.61C158.01 438.64 157.94 438.68 157.88 438.72C157.77 438.79 157.74 438.94 157.8 439.05L160.8 444.36C160.9 444.56 160.95 444.75 161.12 444.69C164.49 443.61 168.03 441.31 169.98 436.93L177.35 437.01C177.29 439.87 176.86 441.33 175.54 444.06C175.47 444.2 175.1 444.86 175.9 444.86H183.89C184.03 444.86 184.14 444.71 184.14 444.53V417.96C184.14 417.21 184.11 416.75 184.08 416.48C184.06 416.26 183.9 416.1 183.71 416.1L183.75 416.34ZM177.8 431.79H171.84C172.07 431.12 172.17 429.91 172.28 429.02L177.8 429.08V431.79ZM178.2 424.26H172.61C172.63 423.56 172.64 422.56 172.64 421.85L178.2 421.75V424.26V424.26Z" fill="#040000"/>
<path d="M185.52 408.31C188 403.72 188.1 396.87 183.86 394.66C177.58 391.38 172.28 395.32 169.99 397.45C169.99 395.38 169.93 394.01 169.93 394.01C169.96 393.82 169.86 393.65 169.75 393.61C169.15 393.4 164.82 393.68 163.99 394.71C163.77 394.99 163.59 395.57 163.88 399.1L164.68 409.35C163.87 409.3 163.34 408.97 163.07 408.73C162.97 408.65 162.85 408.73 162.84 408.88C162.76 409.93 162.96 414.49 156.68 416.94C156.16 417.14 156.46 417.37 156.6 417.56L160.77 421.92C161.23 422.54 161.96 422.62 162.49 422.11C163.75 420.88 166.33 418.47 167.61 413.57L184.83 413.4C184.97 413.4 185.11 413.4 185.23 413.4C185.24 415.56 185.11 418.04 184.59 420.01C184.55 420.16 184.69 420.31 184.81 420.31L189.96 420.28C190.12 420.28 190.25 420.18 190.29 420.03C191.44 415.01 190.63 409.43 190.63 409.43V409.4C190.53 408.77 189.95 408.31 189.28 408.31C188.31 408.31 186.67 408.31 185.68 408.31H185.52ZM174.27 401.47H174.19C174.19 401.47 173.5 402.31 173.69 408.41L169.16 408.62C169.58 406.21 169.83 403.55 169.98 401.25C170.89 399.85 173.25 397.04 177.88 397.79C180.25 398.17 181.2 399.19 181.8 400.9L174.27 401.46V401.47ZM181.31 408.14L177.43 408.27C177.05 405.61 177.56 404.93 177.56 404.93L182.15 404.59C182.03 405.81 181.72 407.04 181.3 408.14" fill="#040000"/>
<path d="M221.63 416.85L192.64 417.48C192.53 417.48 192.47 417.57 192.4 417.66C192.04 418.18 191.43 419.42 191.73 421.67C191.75 421.81 191.87 421.86 192.01 421.89L221.14 421.78C221.23 421.78 221.32 421.74 221.36 421.68C222.43 420.44 222.05 417.53 221.9 417.01C221.87 416.91 221.75 416.83 221.62 416.85" fill="#040000"/>
<path d="M224.71 438.79C221.73 439.16 216.83 439.64 214.29 439.89C215.26 438.77 216.07 436.74 216.5 435.5L219.23 435.39C219.38 435.38 219.58 435.36 219.65 435.21C220.91 433.54 221.56 431.47 221.45 429.99C221.35 428.66 220.67 427.55 219.89 426.69C218.67 425.34 217 424.5 215.21 424.14C210.42 423.17 204.54 423.68 201.39 424.72C200.04 425.17 198.8 425.79 197.86 426.4L197.77 424.28C197.75 423.97 197.68 423.92 197.39 423.84C196.56 423.62 194.35 423.72 192.11 424.23C191.83 424.29 191.62 424.42 191.51 424.6C191.43 424.73 191.4 424.89 191.44 425.06L193.22 435.4C193.26 435.62 193.45 435.77 193.67 435.77C193.9 435.77 194.07 435.77 194.57 435.77H196.46C196.99 437.05 197.9 439.04 198.96 440.47C192.34 440.42 188.8 439.83 188.8 439.83C188.7 439.83 188.63 439.91 188.57 439.99C188.19 440.48 187.43 442.24 187.57 444.41C187.57 444.54 187.65 444.61 187.82 444.63C187.82 444.63 192.93 445.07 224.23 444.71C224.32 444.71 224.4 444.67 224.45 444.59C225.54 442.91 225.06 439.77 224.95 439.04C224.93 438.9 224.83 438.79 224.7 438.8L224.71 438.79ZM208.4 439.83C207.43 439.97 206.26 439.99 205.31 439.98C203.73 438.05 203.07 436.43 202.8 435.37L210.62 435.34C210.21 436.59 209.47 438.5 208.41 439.83H208.4ZM198.09 431.57L198.02 429.89C201.41 428.21 205.06 427.09 210.58 427.62C212.7 427.82 214.25 428.57 214.5 429.72C214.61 430.23 214.46 430.74 214.08 431.17L198.09 431.57Z" fill="#040000"/>
<path d="M256.89 410.61L238.6 411.28C238.49 411.28 238.42 411.38 238.35 411.47C237.96 412.03 237.21 413.68 237.52 416.09C237.54 416.24 237.67 416.29 237.82 416.33H256.38C256.48 416.33 256.57 416.29 256.62 416.23C257.75 414.89 257.35 411.33 257.19 410.78C257.16 410.68 257.03 410.59 256.9 410.61" fill="#040000"/>
<path d="M245.34 391.89C243.85 392.91 242.93 394.07 242.41 394.75C242.07 395.19 241.8 395.66 241.63 396.16C241.04 397.95 242.09 398.6 243.15 398.82C243.15 398.82 244.46 399.1 246.25 399.05C248.59 398.99 250.93 398.86 253.2 398.42C253.38 398.38 253.53 398.28 253.6 398.13C253.84 397.57 254.36 396.01 254 393.49C253.97 393.24 253.69 393.07 253.39 393.09L250.31 393.37C246.88 393.68 245.89 393.03 245.84 392.15C245.81 391.55 246.06 391.4 245.35 391.88" fill="#040000"/>
<path d="M258.23 401.04C258.18 400.92 258.01 400.86 257.85 400.87L243.25 401.73C239.48 401.94 238.12 400.85 238.19 399.89C238.24 399.23 238.61 399.15 237.66 399.55C236.65 399.98 236.29 400.36 235.87 400.77C235.87 400.77 234.25 402.49 234.24 404.08C234.23 405.94 235.72 407.07 237.59 407.21C242.33 407.57 251.56 406.96 257.51 406.58C257.71 406.57 257.79 406.42 257.86 406.28C258.54 405.02 258.97 402.93 258.22 401.03" fill="#040000"/>
<path d="M256.89 419.33L238.6 420C238.49 420 238.42 420.1 238.35 420.19C237.96 420.75 237.21 422.4 237.52 424.81C237.54 424.96 237.67 425.01 237.82 425.05H256.38C256.48 425.05 256.57 425.01 256.62 424.95C257.75 423.61 257.35 420.05 257.19 419.5C257.16 419.4 257.03 419.31 256.9 419.33" fill="#040000"/>
<path d="M270.54 422.33C270.63 422.33 270.7 422.41 270.69 422.5C269.23 438.32 259.25 437.53 258.42 437.52C258.2 437.52 258.02 437.37 258.03 437.2L258.17 429.49C258.17 429.18 258.22 429.12 258.61 429.12C261.33 429.12 265.16 429.22 266.39 422.41C266.4 422.34 266.47 422.28 266.54 422.28L270.55 422.32L270.54 422.33Z" fill="#040000"/>
<path d="M280.63 419.92C280.52 419.85 280.39 419.83 280.26 419.83C279.69 419.86 278.25 420.19 275.73 422.39C275.57 422.53 275.62 422.62 275.8 422.78C277.05 423.89 279.03 426.29 279.97 432.51C280.01 432.75 280.23 432.84 280.47 432.7L287.3 428.93C287.71 428.7 287.83 428.67 287.75 428.49C287.19 427.15 284.84 422.57 280.62 419.92" fill="#040000"/>
<path d="M303.17 431.3C298.58 424.51 293 421.04 292.41 420.99C292.35 420.99 292.3 420.99 292.25 421.02C290.16 422.12 288.73 423.4 288.37 423.9C288.3 424 288.34 424.11 288.45 424.19C289.91 425.27 292.9 428.39 295.26 432.38L289.12 431.35C289.07 431.34 289.03 431.37 289.03 431.42C288.72 436.37 286.3 438.39 280.63 438.39C276.31 438.39 274.74 437.11 274.93 432.78C275.11 428.63 275.71 426.01 275.98 424.86C276 424.77 275.94 424.68 275.83 424.66H272.21C272.1 424.64 271.99 424.69 271.96 424.77C271.96 424.77 269.42 430.46 269.42 436.79C269.42 436.79 269.13 443.63 275.59 444.62C277.05 444.85 280.14 444.97 284.03 444.81C291.11 444.81 295.23 440.48 296.03 433.77C296.39 434.48 296.72 435.22 297 435.97C297.04 436.07 297.15 436.11 297.26 436.07C298.18 435.67 302.05 433.97 303.19 431.44C303.21 431.39 303.19 431.34 303.17 431.3" fill="#040000"/>
<path d="M238.63 443.42C238.64 443.58 238.74 443.64 238.85 443.68L254.95 443.55C255.02 443.55 255.09 443.51 255.13 443.44C256.64 440.32 257.16 436.63 257.32 435.14C257.36 434.72 257.39 434.31 257.37 433.89C257.26 431.9 256.5 430.27 255.12 429.03C253.31 427.41 250.71 426.95 249.05 426.95C246.35 426.95 244.3 427.95 242.79 429.22C242.76 428.52 242.74 428.13 242.74 428.13C242.76 427.96 242.68 427.81 242.59 427.77C242.14 427.6 238.74 427.64 237.54 428.21C237.33 428.31 237.2 428.63 237.23 428.95L238.63 443.42ZM251.26 438.93C251.17 439.14 250.9 439.32 250.67 439.32L243.31 439.49C243.18 437.16 243.07 434.99 242.98 433.2C244.61 432.27 247 431.39 249.45 432.24C249.98 432.42 250.48 432.7 250.88 433.08C251.79 433.94 252.51 435.81 251.25 438.93" fill="#040000"/>
<path d="M272.46 412.28C271.44 412.81 269.95 412.99 268.92 413C267.67 413 264.86 413.09 264.86 413.09C264.74 413.09 264.72 413.15 264.66 413.23C264.36 413.64 263.75 416.48 264.16 418.53C264.18 418.64 264.26 418.68 264.38 418.71C264.38 418.71 275.83 418.85 295.27 418.29C295.41 418.29 295.57 418.22 295.63 418.04C296.21 416.2 296.23 413.05 296.13 412.46C296.11 412.35 296.02 412.26 295.91 412.27L279.63 412.64C282.91 410.89 283.37 406.13 283.37 406.13C286.76 406.12 291.33 406.26 297.1 406.11C297.19 406.11 297.27 406.06 297.32 405.99C298.4 404.34 298.01 400.2 297.89 399.49C297.87 399.36 297.76 399.25 297.63 399.27C293.51 399.85 288.6 400.34 283.47 400.46L283.7 392.22C283.7 391.59 283.62 391.58 283.09 391.52C282.61 391.46 276.43 391.47 275.74 391.79C275.6 391.86 275.54 392.03 275.55 392.31C275.55 392.31 275.87 395.57 276.03 400.51C268.36 400.69 262.56 400.51 262.56 400.51C262.46 400.51 262.39 400.59 262.32 400.67C261.95 401.15 261.36 403.65 261.68 406.17C261.7 406.3 261.8 406.33 261.94 406.38C261.94 406.38 262.04 406.56 275.98 406.28C275.98 406.28 275.56 410.65 272.42 412.27" fill="#040000"/>
<path d="M4.49035 367.96C5.61035 368.91 7.03035 369.6 8.71035 370.02C10.4404 370.44 12.3404 370.82 14.3604 371.12C16.3804 371.43 18.2804 371.64 20.0104 371.76C21.7804 371.88 23.2804 372.1 24.4704 372.42C24.9804 372.55 26.5304 372.96 26.5304 374.03C26.5304 374.85 25.6904 375.48 23.9604 375.93C22.4204 376.33 20.4704 376.54 18.1704 376.54C15.4104 376.54 12.7104 376.35 10.1504 375.97C7.56035 375.59 5.92035 375.3 5.13035 375.08C4.68035 374.96 4.30035 374.84 3.95035 374.73C3.92035 374.73 3.88035 374.75 3.88035 374.8V381.52C3.88035 381.77 4.08035 381.98 4.34035 381.99L18.1704 382.52C23.2404 382.52 27.3104 381.67 30.2804 379.99C33.2204 378.33 34.6504 376.06 34.6504 373.05C34.6504 371.75 34.1203 370.69 33.0303 369.81C31.9103 368.91 30.4904 368.25 28.8104 367.85C27.0904 367.44 25.1904 367.1 23.1604 366.83C21.1404 366.56 19.2304 366.35 17.5004 366.21C15.7304 366.07 14.2304 365.83 13.0304 365.5C12.5204 365.36 10.9804 364.93 10.9804 363.86C10.9804 362 13.3304 361.1 18.1704 361.1C21.0304 361.1 23.7704 361.28 26.3104 361.65C28.8804 362.02 30.5104 362.31 31.2704 362.54C31.6504 362.66 31.9904 362.77 32.2704 362.87C32.2804 362.87 32.2904 362.87 32.3004 362.87C32.3404 362.87 32.4004 362.84 32.4004 362.77V355.85C32.4004 355.74 32.3104 355.65 32.2004 355.65L18.1704 355.06C13.1104 355.06 9.24035 355.9 6.66035 357.55C4.10035 359.19 2.86035 361.49 2.86035 364.58C2.86035 365.92 3.39035 367.03 4.48035 367.96" fill="#040000"/>
<path d="M64.5402 355.73C64.2402 355.73 63.9702 355.9 63.8402 356.16C62.3902 359.09 60.6902 361.93 58.7702 364.58L57.3802 366.56C57.3102 366.67 57.1802 366.73 57.0502 366.73C56.9202 366.73 56.8002 366.67 56.7202 366.57L55.2202 364.58C53.3302 361.92 51.6402 359.09 50.2002 356.16C50.0702 355.9 49.8002 355.73 49.5002 355.73H37.7402V355.77C40.1502 358.21 42.3702 360.85 44.3402 363.61L52.8402 375.4C52.8902 375.47 52.9102 375.54 52.9102 375.62C52.9102 378.24 52.5702 380.48 51.9102 382.27H62.1702L62.0102 381.73C61.8002 381.05 61.6002 380.11 61.4002 378.91C61.2102 377.72 61.1102 376.61 61.1102 375.62C61.1102 375.54 61.1402 375.46 61.1802 375.4L70.7102 362.15C72.3702 359.85 74.2302 357.7 76.2502 355.74C76.2502 355.72 76.2402 355.72 76.2302 355.72H64.5302L64.5402 355.73Z" fill="#040000"/>
<path d="M106.75 379.99C109.69 378.33 111.12 376.06 111.12 373.05C111.12 371.75 110.59 370.69 109.5 369.81C108.38 368.91 106.96 368.25 105.28 367.85C103.56 367.44 101.66 367.1 99.6303 366.82C97.6103 366.55 95.7003 366.34 93.9703 366.2C92.2003 366.06 90.7003 365.82 89.5103 365.49C89.0003 365.35 87.4603 364.92 87.4603 363.85C87.4603 361.99 89.8103 361.09 94.6503 361.09C97.5103 361.09 100.25 361.27 102.79 361.64C105.36 362.01 106.99 362.3 107.75 362.53C108.08 362.63 108.37 362.73 108.63 362.82C108.65 362.82 108.68 362.83 108.7 362.83C108.79 362.83 108.89 362.76 108.89 362.65V356.4C108.89 355.99 108.56 355.65 108.13 355.63L94.6303 355.06C89.5703 355.06 85.6903 355.9 83.1203 357.55C80.5603 359.19 79.3203 361.49 79.3203 364.58C79.3203 365.92 79.8503 367.02 80.9403 367.95C82.0603 368.9 83.4803 369.6 85.1603 370.01C86.8903 370.43 88.7903 370.81 90.8103 371.11C92.8303 371.42 94.7303 371.63 96.4603 371.75C98.2303 371.87 99.7303 372.09 100.92 372.41C101.43 372.54 102.98 372.95 102.98 374.02C102.98 374.84 102.14 375.47 100.41 375.92C98.8703 376.32 96.9203 376.53 94.6203 376.53C91.8603 376.53 89.1603 376.34 86.6003 375.96C84.0103 375.58 82.3703 375.29 81.5803 375.07C81.2003 374.97 80.8603 374.87 80.5703 374.78C80.5503 374.78 80.5303 374.78 80.5103 374.78C80.4203 374.78 80.3303 374.85 80.3303 374.96V381.24C80.3303 381.65 80.6703 381.99 81.0903 382.01L94.6203 382.53C99.6903 382.53 103.76 381.68 106.73 380" fill="#040000"/>
<path d="M114.42 363.09L115.09 362.89C115.95 362.64 117.32 362.39 119.26 362.15C121.18 361.91 123.28 361.78 125.5 361.78C125.73 361.78 125.91 361.96 125.91 362.17V369C125.91 373.37 125.53 377.83 124.79 382.27H135.36L135.17 381.05C135 379.9 134.81 378.31 134.6 376.21C134.39 374.13 134.27 372.13 134.23 370.25V362.17C134.23 361.95 134.41 361.78 134.64 361.78C136.94 361.78 139.11 361.92 141.09 362.2C143.11 362.48 144.38 362.7 144.96 362.86C145.25 362.94 145.5 363.01 145.71 363.08V355.73H114.41V363.1L114.42 363.09Z" fill="#040000"/>
<path d="M159.8 362.18C160.18 360.72 160.6 359.53 161.05 358.65C161.5 357.77 162.04 356.94 162.64 356.17C163.08 355.61 163.42 355.2 163.67 354.94H155.86L155.82 354.99C155.68 355.17 155.57 355.35 155.48 355.53C155.34 355.8 155.18 356.15 155.01 356.58C154.75 357.23 154.48 358.02 154.21 358.92C153.95 359.81 153.72 360.96 153.54 362.36C153.37 363.65 153.28 365.02 153.26 366.43H159.24C159.27 364.96 159.46 363.54 159.81 362.19" fill="#040000"/>
<path d="M167.85 381.87L178.31 382.27C178.49 382.27 178.64 382.14 178.67 381.95L179.02 379.91C179.14 379.14 179.48 378.47 180.04 377.94C180.61 377.4 181.29 377.12 182.08 377.12H190.01C190.76 377.12 191.42 377.39 191.99 377.94C192.55 378.47 192.91 379.13 193.06 379.91L193.37 381.94C193.4 382.13 193.55 382.27 193.74 382.27H204.27C204.27 382.27 204.33 382.25 204.34 382.23C204.36 382.19 204.34 382.17 204.34 382.16C202.82 380.02 201.52 377.72 200.5 375.3L192.33 356.03C192.25 355.85 192.07 355.73 191.87 355.73H180.12C179.92 355.73 179.74 355.85 179.66 356.03L171.09 376.3C170.22 378.34 169.11 380.24 167.79 381.97C167.79 381.97 167.76 382.01 167.79 382.04C167.8 382.07 167.83 382.08 167.86 382.08L167.85 381.87ZM181.46 370.69L183.19 365.05C183.26 364.73 183.36 364.47 183.48 364.24C184.03 363.21 184.8 362.59 185.99 362.59C187.39 362.59 188.41 363.44 188.75 364.66L190.52 370.69C190.55 370.81 190.52 370.93 190.45 371.03C190.37 371.13 190.26 371.18 190.13 371.18H181.85C181.72 371.18 181.61 371.12 181.53 371.03C181.45 370.93 181.43 370.81 181.46 370.69Z" fill="#040000"/>
<path d="M209.65 357.16C209.82 358.44 210.01 360.25 210.22 362.52C210.43 364.8 210.53 366.97 210.53 368.99C210.53 373.25 210.17 377.61 209.47 381.93C209.45 382.04 209.5 382.12 209.54 382.16C209.57 382.2 209.64 382.26 209.76 382.26H219.51C219.63 382.26 219.7 382.2 219.73 382.16C219.76 382.12 219.82 382.04 219.8 381.93L219.62 380.78C219.41 379.51 219.21 377.72 219.02 375.46C218.83 373.18 218.74 371.01 218.74 368.99C218.74 364.72 219.1 360.37 219.8 356.05C219.82 355.94 219.77 355.86 219.73 355.82C219.7 355.78 219.63 355.72 219.51 355.72H209.76C209.64 355.72 209.57 355.78 209.54 355.82C209.51 355.86 209.45 355.94 209.47 356.05L209.65 357.16V357.16Z" fill="#040000"/>
<path d="M236.79 382.17C236.79 382.17 236.87 382.06 236.86 381.95L236.68 380.8C235.81 374.24 236.2 368.4 236.2 368.4C236.2 368.22 236.33 368.06 236.52 368.02C236.55 368.02 236.58 368.02 236.6 368.02C236.76 368.02 236.9 368.11 236.97 368.25L242.33 381.55C242.53 381.99 242.83 382.27 243.48 382.27H249.39C250.09 382.27 250.34 381.98 250.55 381.54L255.99 368.14C256.06 368 256.2 367.91 256.36 367.91C256.39 367.91 256.42 367.91 256.44 367.91C256.63 367.95 256.76 368.11 256.76 368.29C256.76 372.56 256.78 377.61 256.1 381.94C256.08 382.05 256.13 382.13 256.17 382.16C256.2 382.2 256.27 382.25 256.38 382.25H265.47C265.67 382.25 265.94 382.25 266.08 382.1C266.21 381.95 266.19 381.69 266.16 381.49L266.06 380.77C265.2 374.09 264.99 368.97 264.99 368.97C264.99 364.86 265.32 360.67 265.97 356.5C266 356.3 265.94 356.1 265.8 355.94C265.66 355.78 265.46 355.69 265.24 355.69H254.87C254.26 355.69 253.95 355.97 253.75 356.39L246.83 372.49C246.77 372.63 246.62 372.72 246.46 372.72C246.3 372.72 246.16 372.63 246.09 372.49L239.12 356.39C238.93 355.96 238.76 355.69 238 355.69H227.74C227.53 355.69 227.32 355.78 227.18 355.94C227.04 356.1 226.98 356.3 227.01 356.51L227.11 357.13C227.28 358.41 227.47 360.22 227.68 362.49C227.89 364.77 227.99 366.94 227.99 368.96C227.99 373.08 227.72 377.29 227.06 381.46C227.03 381.65 227 381.95 227.14 382.1C227.27 382.25 227.55 382.23 227.75 382.23H236.53C236.64 382.23 236.71 382.17 236.75 382.13" fill="#040000"/>
<path d="M273.94 362.27C274.14 364.53 274.25 366.7 274.25 368.7C274.25 372.87 273.91 377.12 273.23 381.35C273.21 381.48 273.25 381.62 273.34 381.72C273.43 381.82 273.56 381.88 273.69 381.88H300.24C300.45 381.88 300.62 381.71 300.62 381.51V374.94C298.53 375.86 295.35 376.33 291.16 376.33C286.59 376.33 282.39 375.76 282.35 375.75C282.15 375.72 282.01 375.56 282.01 375.36V371.96C282.01 371.75 282.19 371.58 282.41 371.58H297.86V366.43H282.41C282.19 366.43 282.01 366.25 282.01 366.04V362.21C282.01 362.01 282.16 361.85 282.35 361.82C282.4 361.82 287.29 361.15 292.15 361.15C296.11 361.15 298.95 361.58 300.62 362.44V356.1C300.62 355.9 300.45 355.73 300.24 355.73H273.69C273.55 355.73 273.42 355.79 273.33 355.89C273.24 355.99 273.2 356.12 273.22 356.25L273.37 357.15C273.54 358.43 273.72 360.17 273.93 362.47" fill="#040000"/>
<path d="M6.6 466.99C4.91 466.99 3.56 466.42 2.54 465.28C1.51 464.13 1 462.57 1 460.59C1 458.61 1.52 457.06 2.54 455.93C3.55 454.85 4.9 454.3 6.6 454.3C8.3 454.3 9.65 454.85 10.66 455.94C11.69 457.07 12.2 458.61 12.2 460.57C12.2 462.53 11.69 464.12 10.66 465.26C9.63 466.4 8.28 466.98 6.59 466.98L6.6 466.99ZM6.6 464.46C7.41 464.46 8.05 464.11 8.51 463.41C8.98 462.72 9.22 461.78 9.22 460.58C9.22 459.38 8.99 458.49 8.52 457.82C8.05 457.15 7.42 456.82 6.61 456.82C5.8 456.82 5.16 457.15 4.7 457.81C4.24 458.47 4.01 459.4 4.01 460.58C4.01 461.76 4.24 462.72 4.71 463.41C5.18 464.11 5.81 464.45 6.61 464.45L6.6 464.46Z" fill="black"/>
<path d="M16.1801 466.85C15.2301 466.85 14.7001 466.82 14.6001 466.77C14.7301 465.53 14.8001 463.89 14.8001 461.84V454.54H17.7901L20.8301 460.39L22.0301 463.1H22.1101C22.1101 463.1 22.1101 463.02 22.0901 462.95C21.8401 460.98 21.7101 459.52 21.7101 458.58V456.56C21.7101 455.76 21.6801 455.09 21.6301 454.54C21.6701 454.49 22.1701 454.46 23.1101 454.46C24.0501 454.46 24.5701 454.49 24.6401 454.54C24.5501 455.35 24.5101 456.37 24.5101 457.6V466.77H21.5201L18.5001 460.87L17.3001 458.19H17.2201C17.2401 458.43 17.2801 458.81 17.3301 459.32C17.5001 460.85 17.5901 461.98 17.5901 462.7V464.74C17.5901 465.54 17.6201 466.21 17.6701 466.76C17.6301 466.81 17.1301 466.84 16.1701 466.84L16.1801 466.85Z" fill="black"/>
<path d="M35.3702 466.93C34.3102 466.82 33.0302 466.77 31.5202 466.77H27.6802V454.55H30.6202V464.31H33.0002C33.7902 464.31 34.5802 464.28 35.3702 464.21C35.4002 464.25 35.4202 464.7 35.4202 465.55C35.4202 466.4 35.4002 466.86 35.3702 466.94V466.93Z" fill="black"/>
<path d="M37.8198 466.76V454.54H40.7598V466.76H37.8198Z" fill="black"/>
<path d="M45.2802 466.85C44.3302 466.85 43.8002 466.82 43.7002 466.77C43.8302 465.53 43.9002 463.89 43.9002 461.84V454.54H46.8902L49.9302 460.39L51.1302 463.1H51.2102C51.2102 463.1 51.2102 463.02 51.1902 462.95C50.9402 460.98 50.8102 459.52 50.8102 458.58V456.56C50.8102 455.76 50.7802 455.09 50.7302 454.54C50.7702 454.49 51.2702 454.46 52.2102 454.46C53.1502 454.46 53.6702 454.49 53.7402 454.54C53.6502 455.35 53.6102 456.37 53.6102 457.6V466.77H50.6202L47.6002 460.87L46.4002 458.19H46.3202C46.3402 458.43 46.3802 458.81 46.4302 459.32C46.6002 460.85 46.6902 461.98 46.6902 462.7V464.74C46.6902 465.54 46.7202 466.21 46.7702 466.76C46.7302 466.81 46.2302 466.84 45.2702 466.84L45.2802 466.85Z" fill="black"/>
<path d="M64.7199 466.93C63.6199 466.82 62.2999 466.77 60.7599 466.77H58.7699C57.9899 466.77 57.3299 466.8 56.7799 466.85C56.6899 466.85 56.6499 466.82 56.6499 466.77C56.7499 466.35 56.7899 465.52 56.7799 464.26V457.61C56.7799 456.38 56.7399 455.36 56.6499 454.55C56.6499 454.5 56.6899 454.47 56.7799 454.47C57.3099 454.53 57.9499 454.55 58.7199 454.55H60.6599C61.8199 454.55 63.1099 454.5 64.5399 454.39C64.5699 454.47 64.5899 454.92 64.5899 455.75C64.5899 456.58 64.5699 457.03 64.5399 457.08C63.9499 457.01 63.1499 456.98 62.1399 456.98H59.7199V459.25H61.7699C62.3799 459.25 63.0599 459.22 63.8099 459.17C63.8399 459.21 63.8599 459.65 63.8599 460.48C63.8599 461.31 63.8399 461.75 63.8099 461.79C63.2399 461.74 62.5599 461.71 61.7699 461.71H59.7199V464.31H62.2199C62.9299 464.31 63.7599 464.27 64.7199 464.2C64.7499 464.25 64.7699 464.71 64.7699 465.56C64.7699 466.41 64.7499 466.87 64.7199 466.95V466.93Z" fill="black"/>
<path d="M75.3498 466.99C74.5298 466.99 73.7298 466.84 72.9498 466.55C72.1198 466.24 71.3898 465.81 70.7798 465.24L72.4398 463.22C72.8898 463.59 73.3698 463.89 73.8898 464.12C74.4398 464.35 74.9498 464.46 75.4198 464.46C76.4798 464.46 77.0098 464.1 77.0098 463.39C77.0098 463.09 76.8698 462.85 76.5998 462.65C76.4198 462.52 76.0598 462.33 75.4998 462.09C75.3998 462.06 75.3298 462.03 75.2898 462.01L73.7298 461.35C73.0098 461.07 72.4298 460.67 71.9998 460.15C71.4998 459.54 71.2398 458.82 71.2398 458C71.2398 456.96 71.6598 456.09 72.4898 455.39C73.3298 454.67 74.3998 454.31 75.6798 454.31C76.3998 454.31 77.1098 454.45 77.7998 454.72C78.5098 454.99 79.1298 455.39 79.6598 455.92L78.1998 457.76C77.3798 457.14 76.5398 456.82 75.6898 456.82C75.2298 456.82 74.8698 456.91 74.6098 457.08C74.3498 457.26 74.2198 457.51 74.2198 457.84C74.2198 458.13 74.3698 458.37 74.6798 458.58C74.8898 458.71 75.2898 458.9 75.8998 459.14C75.9798 459.17 76.0398 459.19 76.0798 459.21L77.6098 459.82C79.2198 460.47 80.0298 461.58 80.0298 463.17C80.0298 464.23 79.6198 465.13 78.8098 465.85C77.9298 466.62 76.7798 467 75.3598 467L75.3498 466.99Z" fill="black"/>
<path d="M82.3799 466.76V454.54H85.3199V459.19H89.3499V454.54H92.2599V466.76H89.3499V461.73H85.3199V466.76H82.3799Z" fill="black"/>
<path d="M100.47 466.99C98.7801 466.99 97.4301 466.42 96.4101 465.28C95.3801 464.13 94.8701 462.57 94.8701 460.59C94.8701 458.61 95.3901 457.06 96.4101 455.93C97.4201 454.85 98.7701 454.3 100.47 454.3C102.17 454.3 103.52 454.85 104.53 455.94C105.56 457.07 106.07 458.61 106.07 460.57C106.07 462.53 105.56 464.12 104.53 465.26C103.5 466.4 102.15 466.98 100.46 466.98L100.47 466.99ZM100.47 464.46C101.28 464.46 101.92 464.11 102.38 463.41C102.85 462.72 103.09 461.78 103.09 460.58C103.09 459.38 102.86 458.49 102.39 457.82C101.92 457.15 101.29 456.82 100.48 456.82C99.6701 456.82 99.0301 457.15 98.5701 457.81C98.1101 458.47 97.8801 459.4 97.8801 460.58C97.8801 461.76 98.1101 462.72 98.5801 463.41C99.0501 464.11 99.6801 464.45 100.48 464.45L100.47 464.46Z" fill="black"/>
<path d="M108.67 466.76V457.59C108.67 456.36 108.63 455.34 108.54 454.53C108.54 454.46 108.58 454.43 108.67 454.43C109.2 454.5 109.91 454.53 110.81 454.53H112.96C114.45 454.53 115.61 454.81 116.43 455.38C117.39 456.05 117.88 457.09 117.88 458.5C117.88 459.91 117.4 460.94 116.43 461.69C115.56 462.36 114.44 462.69 113.04 462.69H111.61V466.75H108.67V466.76ZM111.61 460.38H112.89C114.3 460.38 115.01 459.76 115.01 458.51C115.01 457.92 114.82 457.49 114.44 457.21C114.09 456.97 113.55 456.85 112.81 456.85H111.61V460.38V460.38Z" fill="black"/>
</g>
<defs>
<clipPath id="clip0_467_10114">
<rect width="303" height="112" fill="white"/>
</clipPath>
<clipPath id="clip1_467_10114">
<rect width="303" height="112" fill="white" transform="translate(0 355)"/>
</clipPath>
</defs>
</svg>
