<?xml version="1.0" encoding="UTF-8"?><svg id="a" xmlns="http://www.w3.org/2000/svg" viewBox="0 0 21 21"><defs><style>.b{fill:#ff0018;}</style></defs><path class="b" d="M10.5,11.63c-2.41,0-4.45,1.51-5.28,3.61H15.78c-.83-2.11-2.87-3.61-5.28-3.61Zm-4.32-1.13l1.09-1.09,1.09,1.09,1.09-1.09-1.09-1.09,1.09-1.09-1.09-1.09-1.09,1.09-1.09-1.09-1.09,1.09,1.09,1.09-1.09,1.09,1.09,1.09ZM10.49,.17C4.79,.17,.17,4.79,.17,10.5s4.62,10.33,10.32,10.33,10.34-4.62,10.34-10.33S16.2,.17,10.49,.17Zm.01,18.59c-4.57,0-8.26-3.7-8.26-8.26S5.93,2.24,10.5,2.24s8.26,3.7,8.26,8.26-3.7,8.26-8.26,8.26ZM14.82,6.12l-1.09,1.09-1.09-1.09-1.09,1.09,1.09,1.09-1.09,1.09,1.09,1.09,1.09-1.09,1.09,1.09,1.09-1.09-1.09-1.09,1.09-1.09-1.09-1.09Z"/></svg>